<?xml version="1.0" standalone="no"?>
<!DOCTYPE svg PUBLIC "-//W3C//DTD SVG 20010904//EN"
 "http://www.w3.org/TR/2001/REC-SVG-20010904/DTD/svg10.dtd">
<svg version="1.0" xmlns="http://www.w3.org/2000/svg"
 width="300.000000pt" height="300.000000pt" viewBox="0 0 300.000000 300.000000"
 preserveAspectRatio="xMidYMid meet">
<metadata>
Created by potrace 1.10, written by Peter Selinger 2001-2011
</metadata>
<g transform="translate(0.000000,300.000000) scale(0.100000,-0.100000)"
fill="#000000" stroke="none">
<path d="M1460 1648 c-18 -13 -39 -32 -47 -44 -13 -20 -12 -21 39 -17 66 4 96
-14 77 -45 -12 -18 -14 -19 -36 -5 -30 20 -70 9 -85 -22 -24 -52 31 -102 82
-75 18 10 25 9 38 -4 15 -14 14 -17 -3 -31 -62 -46 -155 -15 -171 57 l-6 31
-30 -54 c-16 -30 -28 -65 -26 -79 l3 -25 447 -3 446 -2 31 26 c18 14 63 80
102 146 63 106 70 123 60 144 l-11 24 -438 0 c-439 0 -439 0 -472 -22z m440
-26 c0 -5 -9 -17 -19 -26 -15 -13 -28 -16 -51 -11 -18 4 -51 2 -74 -5 -37 -10
-48 -9 -81 7 -74 35 -58 43 89 43 75 0 136 -4 136 -8z m430 -9 c0 -26 -106
-199 -136 -222 -22 -17 -41 -21 -99 -21 -68 0 -73 1 -68 20 3 11 -2 32 -12 46
-15 23 -15 27 -1 49 23 35 21 43 -25 97 l-40 48 190 0 c173 0 191 -2 191 -17z
m-730 -49 c0 -45 0 -45 22 -30 54 38 85 8 89 -84 3 -64 2 -65 -24 -68 -27 -3
-27 -3 -27 57 0 58 -1 61 -24 61 -29 0 -39 -23 -34 -78 3 -34 1 -37 -24 -40
l-28 -3 0 115 0 116 25 0 c23 0 25 -4 25 -46z m376 -24 c33 0 29 -34 -4 -38
-20 -3 -23 -8 -20 -40 2 -28 7 -36 19 -34 21 3 34 -29 17 -40 -20 -12 -41 -10
-66 8 -18 12 -22 25 -22 65 0 27 -4 49 -10 49 -5 0 -10 7 -10 15 0 8 5 15 10
15 6 0 10 9 10 19 0 30 44 33 48 4 2 -17 10 -23 28 -23z m-128 -7 c29 -25 35
-146 8 -151 -9 -2 -23 1 -31 8 -9 7 -15 8 -20 0 -16 -27 -85 9 -85 44 0 27 30
46 72 46 36 0 39 2 27 16 -9 11 -22 14 -45 10 -23 -5 -33 -2 -38 9 -12 33 78
47 112 18z"/>
<path d="M1793 1452 c-28 -4 -31 -32 -4 -32 20 0 47 26 34 32 -4 2 -18 2 -30
0z"/>
<path d="M710 1488 l0 -103 70 0 c66 0 70 1 70 23 0 20 -5 22 -45 22 l-45 0 0
80 c0 79 0 80 -25 80 l-25 0 0 -102z"/>
<path d="M1127 1584 c-4 -4 -4 -17 -1 -29 5 -20 2 -22 -20 -18 -17 4 -26 12
-26 24 0 14 -7 19 -25 19 -18 0 -25 -5 -25 -20 0 -11 -4 -20 -10 -20 -5 0 -10
-7 -10 -15 0 -8 5 -15 10 -15 6 0 10 -25 10 -55 0 -45 4 -56 21 -65 29 -16 71
-4 67 18 -2 10 -11 16 -21 14 -14 -2 -17 5 -17 42 0 39 2 44 20 39 11 -3 20 0
20 6 0 6 5 11 11 11 16 0 38 31 39 53 0 17 -29 24 -43 11z"/>
<path d="M900 1543 c-51 -19 -68 -89 -32 -133 21 -26 90 -33 116 -11 23 19 9
34 -25 27 -31 -6 -59 1 -59 15 0 5 25 9 55 9 59 0 60 1 45 47 -15 41 -59 61
-100 46z m58 -50 c2 -9 -7 -13 -27 -13 -30 0 -39 9 -24 24 11 10 46 3 51 -11z"/>
<path d="M1202 1534 c-13 -9 -22 -26 -22 -40 0 -21 8 -29 40 -41 22 -9 40 -20
40 -25 0 -11 -41 -10 -60 2 -9 6 -17 5 -22 -3 -13 -20 -9 -25 27 -37 43 -14
88 4 93 38 5 30 -11 48 -48 56 -46 9 -38 30 9 22 30 -4 40 -2 45 9 4 11 -3 19
-20 25 -36 14 -56 12 -82 -6z"/>
</g>
</svg>
